<svg xmlns="http://www.w3.org/2000/svg" xmlns:xlink="http://www.w3.org/1999/xlink" xmlns:lucid="lucid" width="9098.33" height="3840.5"><g transform="translate(0 0)" lucid:page-tab-id="0_0"><path d="M5429.14 240.03c19.57 0 35.43 21.94 35.43 49 0 27.08-15.86 49.03-35.43 49.03h-106.3c-19.55 0-35.4-21.95-35.4-49.02 0-27.07 15.85-49 35.4-49z" stroke="#3a414a" stroke-width="2" fill="#fff7a1"/><use xlink:href="#a" transform="matrix(1,0,0,1,5292.426302283651,245.02793438579315) translate(52.18518518518519 49.14583333333333)"/><path d="M5406 343.7c11.04 0 20 10.08 20 22.5s-8.96 22.5-20 22.5h-60c-11.05 0-20-10.08-20-22.5s8.95-22.5 20-22.5z" stroke="#3a414a" fill="#fcfcca"/><use xlink:href="#b" transform="matrix(1,0,0,1,5330.99650111,348.7120789536324) translate(5.543209876543223 20.78472222222222)"/><path d="M5376 342.2v-2.14" stroke="#3a414a" stroke-width="2" fill="none"/><path d="M5377 343.2h-2v-1h2zM5377 340.08h-2v-1.02h2z" stroke="#3a414a" stroke-width=".05" fill="#3a414a"/><path d="M5406 394.12c11.04 0 20 10.07 20 22.5 0 12.4-8.96 22.48-20 22.48h-60c-11.05 0-20-10.07-20-22.5 0-12.4 8.95-22.48 20-22.48z" stroke="#3a414a" fill="#fcfcca"/><use xlink:href="#b" transform="matrix(1,0,0,1,5330.99650111,399.11862017316605) translate(5.543209876543223 20.78472222222222)"/><path d="M5406 444.53c11.04 0 20 10.06 20 22.48 0 12.43-8.96 22.5-20 22.5h-60c-11.05 0-20-10.07-20-22.5 0-12.4 8.95-22.47 20-22.47z" stroke="#3a414a" fill="#fcfcca"/><use xlink:href="#b" transform="matrix(1,0,0,1,5330.99650111,449.5251613926997) translate(5.543209876543223 20.78472222222222)"/><path d="M5376 390.2v2.42" stroke="#3a414a" stroke-width="2" fill="none"/><path d="M5377 390.22h-2v-1.03h2zM5377 393.62h-2v-1.03h2z" stroke="#3a414a" stroke-width=".05" fill="#3a414a"/><path d="M5376 440.6v2.43" stroke="#3a414a" stroke-width="2" fill="none"/><path d="M5377 440.62h-2v-1.02h2zM5377 444.03h-2V443h2z" stroke="#3a414a" stroke-width=".05" fill="#3a414a"/><path d="M5216.56 440c19.57 0 35.43 21.94 35.43 49 0 27.08-15.87 49.03-35.44 49.03h-106.28c-19.57 0-35.43-21.95-35.43-49.02 0-27.06 15.86-49 35.43-49z" stroke="#3a414a" stroke-width="2" fill="#c3f7c8"/><use xlink:href="#c" transform="matrix(1,0,0,1,5079.8526045673025,445.0000000000002) translate(30.740740740740748 49.14583333333333)"/><use xlink:href="#d" transform="matrix(1,0,0,1,5079.8526045673025,445.0000000000002) translate(73.62962962962962 49.14583333333333)"/><path d="M5641.7 440c19.58 0 35.44 21.94 35.44 49 0 27.08-15.86 49.03-35.43 49.03h-106.27c-19.57 0-35.43-21.95-35.43-49.02 0-27.06 15.86-49 35.43-49z" stroke="#3a414a" stroke-width="2" fill="#ffd9d9"/><use xlink:href="#e" transform="matrix(1,0,0,1,5505,445.0000000000002) translate(22.62962962962964 49.14583333333333)"/><use xlink:href="#d" transform="matrix(1,0,0,1,5505,445.0000000000002) translate(81.74074074074073 49.14583333333333)"/><path d="M5285.8 289.8l-121.74 148.43" stroke="#3a414a" stroke-width="2" fill="none"/><path d="M5286.43 289.03l.02 1.36-1.45-1.2 1.5-1.84zM5164.85 438.84l-.13.16h-2.6l1.18-1.43z" stroke="#3a414a" stroke-width=".05" fill="#3a414a"/><path d="M5466.2 289.8l121.74 148.43" stroke="#3a414a" stroke-width="2" fill="none"/><path d="M5467 289.2l-1.5 1.23.07-1.37-.04-1.63zM5589.86 439h-2.58l-.13-.16 1.54-1.27z" stroke="#3a414a" stroke-width=".05" fill="#3a414a"/><defs><path fill="#3a414a" d="M190 0L58-211 59 0H30v-248h39L202-35l-2-213h31V0h-41" id="f"/><path fill="#3a414a" d="M100-194c62-1 85 37 85 99 1 63-27 99-86 99S16-35 15-95c0-66 28-99 85-99zM99-20c44 1 53-31 53-75 0-43-8-75-51-75s-53 32-53 75 10 74 51 75" id="g"/><path fill="#3a414a" d="M85-194c31 0 48 13 60 33l-1-100h32l1 261h-30c-2-10 0-23-3-31C134-8 116 4 85 4 32 4 16-35 15-94c0-66 23-100 70-100zm9 24c-40 0-46 34-46 75 0 40 6 74 45 74 42 0 51-32 51-76 0-42-9-74-50-73" id="h"/><path fill="#3a414a" d="M100-194c63 0 86 42 84 106H49c0 40 14 67 53 68 26 1 43-12 49-29l28 8c-11 28-37 45-77 45C44 4 14-33 15-96c1-61 26-98 85-98zm52 81c6-60-76-77-97-28-3 7-6 17-6 28h103" id="i"/><g id="a"><use transform="matrix(0.07407407407407407,0,0,0.07407407407407407,0,0)" xlink:href="#f"/><use transform="matrix(0.07407407407407407,0,0,0.07407407407407407,19.185185185185183,0)" xlink:href="#g"/><use transform="matrix(0.07407407407407407,0,0,0.07407407407407407,34,0)" xlink:href="#h"/><use transform="matrix(0.07407407407407407,0,0,0.07407407407407407,48.81481481481481,0)" xlink:href="#i"/></g><path fill="#3a414a" d="M33 0v-248h34V0H33" id="j"/><path fill="#3a414a" d="M117-194c89-4 53 116 60 194h-32v-121c0-31-8-49-39-48C34-167 62-67 57 0H25l-1-190h30c1 10-1 24 2 32 11-22 29-35 61-36" id="k"/><path fill="#3a414a" d="M177-190C167-65 218 103 67 71c-23-6-38-20-44-43l32-5c15 47 100 32 89-28v-30C133-14 115 1 83 1 29 1 15-40 15-95c0-56 16-97 71-98 29-1 48 16 59 35 1-10 0-23 2-32h30zM94-22c36 0 50-32 50-73 0-42-14-75-50-75-39 0-46 34-46 75s6 73 46 73" id="l"/><path fill="#3a414a" d="M114-163C36-179 61-72 57 0H25l-1-190h30c1 12-1 29 2 39 6-27 23-49 58-41v29" id="m"/><path fill="#3a414a" d="M24-231v-30h32v30H24zM24 0v-190h32V0H24" id="n"/><path fill="#3a414a" d="M59-47c-2 24 18 29 38 22v24C64 9 27 4 27-40v-127H5v-23h24l9-43h21v43h35v23H59v120" id="o"/><g id="b"><use transform="matrix(0.049382716049382706,0,0,0.049382716049382706,0,0)" xlink:href="#j"/><use transform="matrix(0.049382716049382706,0,0,0.049382716049382706,4.93827160493827,0)" xlink:href="#k"/><use transform="matrix(0.049382716049382706,0,0,0.049382716049382706,14.814814814814811,0)" xlink:href="#l"/><use transform="matrix(0.049382716049382706,0,0,0.049382716049382706,24.691358024691354,0)" xlink:href="#m"/><use transform="matrix(0.049382716049382706,0,0,0.049382716049382706,30.567901234567895,0)" xlink:href="#i"/><use transform="matrix(0.049382716049382706,0,0,0.049382716049382706,40.444444444444436,0)" xlink:href="#h"/><use transform="matrix(0.049382716049382706,0,0,0.049382716049382706,50.32098765432097,0)" xlink:href="#n"/><use transform="matrix(0.049382716049382706,0,0,0.049382716049382706,54.222222222222214,0)" xlink:href="#i"/><use transform="matrix(0.049382716049382706,0,0,0.049382716049382706,64.09876543209874,0)" xlink:href="#k"/><use transform="matrix(0.049382716049382706,0,0,0.049382716049382706,73.97530864197529,0)" xlink:href="#o"/></g><path fill="#3a414a" d="M24 0v-261h32V0H24" id="p"/><path fill="#3a414a" d="M101-234c-31-9-42 10-38 44h38v23H63V0H32v-167H5v-23h27c-7-52 17-82 69-68v24" id="q"/><g id="c"><use transform="matrix(0.07407407407407407,0,0,0.07407407407407407,0,0)" xlink:href="#p"/><use transform="matrix(0.07407407407407407,0,0,0.07407407407407407,5.851851851851851,0)" xlink:href="#i"/><use transform="matrix(0.07407407407407407,0,0,0.07407407407407407,20.666666666666664,0)" xlink:href="#q"/><use transform="matrix(0.07407407407407407,0,0,0.07407407407407407,28.07407407407407,0)" xlink:href="#o"/></g><g id="d"><use transform="matrix(0.07407407407407407,0,0,0.07407407407407407,0,0)" xlink:href="#f"/><use transform="matrix(0.07407407407407407,0,0,0.07407407407407407,19.185185185185183,0)" xlink:href="#g"/><use transform="matrix(0.07407407407407407,0,0,0.07407407407407407,34,0)" xlink:href="#h"/><use transform="matrix(0.07407407407407407,0,0,0.07407407407407407,48.81481481481481,0)" xlink:href="#i"/></g><path fill="#3a414a" d="M106-169C34-169 62-67 57 0H25v-261h32l-1 103c12-21 28-36 61-36 89 0 53 116 60 194h-32v-121c2-32-8-49-39-48" id="r"/><g id="e"><use transform="matrix(0.07407407407407407,0,0,0.07407407407407407,0,0)" xlink:href="#m"/><use transform="matrix(0.07407407407407407,0,0,0.07407407407407407,8.814814814814815,0)" xlink:href="#n"/><use transform="matrix(0.07407407407407407,0,0,0.07407407407407407,14.666666666666666,0)" xlink:href="#l"/><use transform="matrix(0.07407407407407407,0,0,0.07407407407407407,29.48148148148148,0)" xlink:href="#r"/><use transform="matrix(0.07407407407407407,0,0,0.07407407407407407,44.29629629629629,0)" xlink:href="#o"/></g></defs></g></svg>