<svg xmlns="http://www.w3.org/2000/svg" xmlns:xlink="http://www.w3.org/1999/xlink" xmlns:lucid="lucid" width="9098.33" height="3840.5"><g transform="translate(0 0)" lucid:page-tab-id="0_0"><path d="M4570.64 169.73c19.56 0 35.42 21.95 35.42 49.02 0 27.07-15.86 49-35.42 49h-106.3c-19.55 0-35.42-21.93-35.42-49s15.87-49.02 35.43-49.02z" stroke="#3a414a" stroke-width="2" fill="#fff7a1"/><use xlink:href="#a" transform="matrix(1,0,0,1,4433.924245599559,174.73451655085177) translate(52.18518518518519 49.14583333333333)"/><path d="M4358.06 369.7c19.57 0 35.43 21.95 35.43 49.02 0 27.07-15.87 49-35.44 49h-106.28c-19.57 0-35.43-21.93-35.43-49s15.86-49 35.43-49z" stroke="#3a414a" stroke-width="2" fill="#c3f7c8"/><use xlink:href="#b" transform="matrix(1,0,0,1,4221.35054788321,374.7065821650588) translate(30.740740740740748 49.14583333333333)"/><use xlink:href="#c" transform="matrix(1,0,0,1,4221.35054788321,374.7065821650588) translate(73.62962962962962 49.14583333333333)"/><path d="M4783.2 369.7c19.58 0 35.44 21.95 35.44 49.02 0 27.07-15.86 49-35.43 49h-106.27c-19.57 0-35.43-21.93-35.43-49s15.86-49 35.43-49z" stroke="#3a414a" stroke-width="2" fill="#ffd9d9"/><use xlink:href="#d" transform="matrix(1,0,0,1,4646.497943315908,374.7065821650588) translate(22.62962962962964 49.14583333333333)"/><use xlink:href="#c" transform="matrix(1,0,0,1,4646.497943315908,374.7065821650588) translate(81.74074074074073 49.14583333333333)"/><path d="M4427.3 219.52l-121.75 148.4" stroke="#3a414a" stroke-width="2" fill="none"/><path d="M4427.92 218.73l.03 1.37-1.45-1.2 1.5-1.83zM4306.34 368.55l-.13.16h-2.57l1.17-1.42z" stroke="#3a414a" stroke-width=".05" fill="#3a414a"/><path d="M4607.7 219.52l121.73 148.4" stroke="#3a414a" stroke-width="2" fill="none"/><path d="M4608.5 218.9l-1.5 1.23.07-1.37-.04-1.63zM4731.36 368.7h-2.6l-.12-.15 1.55-1.27z" stroke="#3a414a" stroke-width=".05" fill="#3a414a"/><path d="M4429.36 303.1a6 6 0 0 1 6-6h165.07a6 6 0 0 1 6 6v13.87a6 6 0 0 1-6 6h-165.07a6 6 0 0 1-6-6z" stroke="#3a414a" fill="#fcfcca"/><path d="M4517.9 295.63v-25.87" stroke="#3a414a" stroke-width="2" fill="none"/><path d="M4518.9 296.62h-2v-1.02h2zM4518.9 269.8h-2v-1.04h2z" stroke="#3a414a" stroke-width=".05" fill="#3a414a"/><path d="M4517.5 300.28a.25.25 0 0 1 .24.25v19a.25.25 0 0 1-.25.25.25.25 0 0 1-.26-.25v-19a.25.25 0 0 1 .25-.25zM4561.76 300.28a.25.25 0 0 1 .25.25v19a.25.25 0 0 1-.24.25.25.25 0 0 1-.25-.25v-19a.25.25 0 0 1 .26-.25zM4471.2 300.25a.25.25 0 0 1 .25.25v19.32a.25.25 0 0 1-.25.25.25.25 0 0 1-.25-.25V300.5a.25.25 0 0 1 .25-.25z" stroke="#3a414a" stroke-width=".5" fill="none"/><path d="M4562.26 303.97a6 6 0 0 1 6-6h29.33a6 6 0 0 1 6 6v13a6 6 0 0 1-6 6h-29.34a6 6 0 0 1-6-6z" stroke="#000" stroke-opacity="0" fill="#fff" fill-opacity="0"/><use xlink:href="#e" transform="matrix(1,0,0,1,4567.255159279209,302.96682854785377) translate(0.4629629629629708 12.666666666666664)"/><path d="M4518 303.8a6 6 0 0 1 6-6h29.33a6 6 0 0 1 6 6v13.02a6 6 0 0 1-6 6H4524a6 6 0 0 1-6-6z" stroke="#000" stroke-opacity="0" fill="#fff" fill-opacity="0"/><use xlink:href="#e" transform="matrix(1,0,0,1,4522.994444425908,302.8143593944892) translate(0.4629629629629708 12.666666666666664)"/><path d="M4475.66 303.97a6 6 0 0 1 6-6H4511a6 6 0 0 1 6 6v13a6 6 0 0 1-6 6h-29.34a6 6 0 0 1-6-6z" stroke="#000" stroke-opacity="0" fill="#fff" fill-opacity="0"/><use xlink:href="#e" transform="matrix(1,0,0,1,4480.658451109535,302.96682854785377) translate(0.4629629629629708 12.666666666666664)"/><path d="M4430.36 303.53a6 6 0 0 1 6-6h29.34a6 6 0 0 1 6 6v13a6 6 0 0 1-6 6h-29.34a6 6 0 0 1-6-6z" stroke="#000" stroke-opacity="0" fill="#fff" fill-opacity="0"/><g><use xlink:href="#e" transform="matrix(1,0,0,1,4435.362476075282,302.5275366134048) translate(0.4629629629629708 12.666666666666664)"/></g><defs><path fill="#3a414a" d="M190 0L58-211 59 0H30v-248h39L202-35l-2-213h31V0h-41" id="f"/><path fill="#3a414a" d="M100-194c62-1 85 37 85 99 1 63-27 99-86 99S16-35 15-95c0-66 28-99 85-99zM99-20c44 1 53-31 53-75 0-43-8-75-51-75s-53 32-53 75 10 74 51 75" id="g"/><path fill="#3a414a" d="M85-194c31 0 48 13 60 33l-1-100h32l1 261h-30c-2-10 0-23-3-31C134-8 116 4 85 4 32 4 16-35 15-94c0-66 23-100 70-100zm9 24c-40 0-46 34-46 75 0 40 6 74 45 74 42 0 51-32 51-76 0-42-9-74-50-73" id="h"/><path fill="#3a414a" d="M100-194c63 0 86 42 84 106H49c0 40 14 67 53 68 26 1 43-12 49-29l28 8c-11 28-37 45-77 45C44 4 14-33 15-96c1-61 26-98 85-98zm52 81c6-60-76-77-97-28-3 7-6 17-6 28h103" id="i"/><g id="a"><use transform="matrix(0.07407407407407407,0,0,0.07407407407407407,0,0)" xlink:href="#f"/><use transform="matrix(0.07407407407407407,0,0,0.07407407407407407,19.185185185185183,0)" xlink:href="#g"/><use transform="matrix(0.07407407407407407,0,0,0.07407407407407407,34,0)" xlink:href="#h"/><use transform="matrix(0.07407407407407407,0,0,0.07407407407407407,48.81481481481481,0)" xlink:href="#i"/></g><path fill="#3a414a" d="M24 0v-261h32V0H24" id="j"/><path fill="#3a414a" d="M101-234c-31-9-42 10-38 44h38v23H63V0H32v-167H5v-23h27c-7-52 17-82 69-68v24" id="k"/><path fill="#3a414a" d="M59-47c-2 24 18 29 38 22v24C64 9 27 4 27-40v-127H5v-23h24l9-43h21v43h35v23H59v120" id="l"/><g id="b"><use transform="matrix(0.07407407407407407,0,0,0.07407407407407407,0,0)" xlink:href="#j"/><use transform="matrix(0.07407407407407407,0,0,0.07407407407407407,5.851851851851851,0)" xlink:href="#i"/><use transform="matrix(0.07407407407407407,0,0,0.07407407407407407,20.666666666666664,0)" xlink:href="#k"/><use transform="matrix(0.07407407407407407,0,0,0.07407407407407407,28.07407407407407,0)" xlink:href="#l"/></g><g id="c"><use transform="matrix(0.07407407407407407,0,0,0.07407407407407407,0,0)" xlink:href="#f"/><use transform="matrix(0.07407407407407407,0,0,0.07407407407407407,19.185185185185183,0)" xlink:href="#g"/><use transform="matrix(0.07407407407407407,0,0,0.07407407407407407,34,0)" xlink:href="#h"/><use transform="matrix(0.07407407407407407,0,0,0.07407407407407407,48.81481481481481,0)" xlink:href="#i"/></g><path fill="#3a414a" d="M114-163C36-179 61-72 57 0H25l-1-190h30c1 12-1 29 2 39 6-27 23-49 58-41v29" id="m"/><path fill="#3a414a" d="M24-231v-30h32v30H24zM24 0v-190h32V0H24" id="n"/><path fill="#3a414a" d="M177-190C167-65 218 103 67 71c-23-6-38-20-44-43l32-5c15 47 100 32 89-28v-30C133-14 115 1 83 1 29 1 15-40 15-95c0-56 16-97 71-98 29-1 48 16 59 35 1-10 0-23 2-32h30zM94-22c36 0 50-32 50-73 0-42-14-75-50-75-39 0-46 34-46 75s6 73 46 73" id="o"/><path fill="#3a414a" d="M106-169C34-169 62-67 57 0H25v-261h32l-1 103c12-21 28-36 61-36 89 0 53 116 60 194h-32v-121c2-32-8-49-39-48" id="p"/><g id="d"><use transform="matrix(0.07407407407407407,0,0,0.07407407407407407,0,0)" xlink:href="#m"/><use transform="matrix(0.07407407407407407,0,0,0.07407407407407407,8.814814814814815,0)" xlink:href="#n"/><use transform="matrix(0.07407407407407407,0,0,0.07407407407407407,14.666666666666666,0)" xlink:href="#o"/><use transform="matrix(0.07407407407407407,0,0,0.07407407407407407,29.48148148148148,0)" xlink:href="#p"/><use transform="matrix(0.07407407407407407,0,0,0.07407407407407407,44.29629629629629,0)" xlink:href="#l"/></g><path fill="#3a414a" d="M96-169c-40 0-48 33-48 73s9 75 48 75c24 0 41-14 43-38l32 2c-6 37-31 61-74 61-59 0-76-41-82-99-10-93 101-131 147-64 4 7 5 14 7 22l-32 3c-4-21-16-35-41-35" id="q"/><path fill="#3a414a" d="M141-36C126-15 110 5 73 4 37 3 15-17 15-53c-1-64 63-63 125-63 3-35-9-54-41-54-24 1-41 7-42 31l-33-3c5-37 33-52 76-52 45 0 72 20 72 64v82c-1 20 7 32 28 27v20c-31 9-61-2-59-35zM48-53c0 20 12 33 32 33 41-3 63-29 60-74-43 2-92-5-92 41" id="r"/><path fill="#3a414a" d="M80-196l47-18 7 23-49 13 32 44-20 13-27-46-27 45-21-12 33-44-49-13 8-23 47 19-2-53h23" id="s"/><g id="e"><use transform="matrix(0.03703703703703702,0,0,0.03703703703703702,0,0)" xlink:href="#q"/><use transform="matrix(0.03703703703703702,0,0,0.03703703703703702,6.666666666666663,0)" xlink:href="#p"/><use transform="matrix(0.03703703703703702,0,0,0.03703703703703702,14.074074074074067,0)" xlink:href="#r"/><use transform="matrix(0.03703703703703702,0,0,0.03703703703703702,21.481481481481474,0)" xlink:href="#m"/><use transform="matrix(0.03703703703703702,0,0,0.03703703703703702,25.888888888888875,0)" xlink:href="#s"/></g></defs></g></svg>